<?xml version="1.0" encoding="UTF-8" standalone="no"?><!-- Generator: Gravit.io --><svg xmlns="http://www.w3.org/2000/svg" xmlns:xlink="http://www.w3.org/1999/xlink" style="isolation:isolate" viewBox="0 0 36 22" width="36pt" height="22pt"><defs><clipPath id="_clipPath_j7j894VvAZ9y1gd2i4oKcAId2rBk9W2i"><rect width="36" height="22"/></clipPath></defs><g clip-path="url(#_clipPath_j7j894VvAZ9y1gd2i4oKcAId2rBk9W2i)"><path d="M 6.554 3.94 L 28.076 3.94 C 28.586 3.94 29 4.354 29 4.863 L 29 6.137 C 29 6.646 28.586 7.06 28.076 7.06 L 6.554 7.06 C 6.044 7.06 5.63 6.646 5.63 6.137 L 5.63 4.863 C 5.63 4.354 6.044 3.94 6.554 3.94 Z" style="stroke:none;fill:#A4A4A4;stroke-miterlimit:10;opacity:0.4;"/><path d="M 6.554 14.94 L 28.076 14.94 C 28.586 14.94 29 15.354 29 15.863 L 29 17.137 C 29 17.646 28.586 18.06 28.076 18.06 L 6.554 18.06 C 6.044 18.06 5.63 17.646 5.63 17.137 L 5.63 15.863 C 5.63 15.354 6.044 14.94 6.554 14.94 Z" style="stroke:none;fill:#A4A4A4;stroke-miterlimit:10;opacity:0.4;"/><path d="M 6.554 9.44 L 28.076 9.44 C 28.586 9.44 29 9.854 29 10.363 L 29 11.637 C 29 12.146 28.586 12.56 28.076 12.56 L 6.554 12.56 C 6.044 12.56 5.63 12.146 5.63 11.637 L 5.63 10.363 C 5.63 9.854 6.044 9.44 6.554 9.44 Z" style="stroke:none;fill:#A4A4A4;stroke-miterlimit:10;opacity:0.4;"/></g></svg>