<?xml version="1.0" encoding="UTF-8" standalone="no"?><!-- Generator: Gravit.io --><svg xmlns="http://www.w3.org/2000/svg" xmlns:xlink="http://www.w3.org/1999/xlink" style="isolation:isolate" viewBox="0 0 49 50" width="49pt" height="50pt"><defs><clipPath id="_clipPath_2an7JYMt15wZ0ggUlDagB6iE14cxoaAi"><rect width="49" height="50"/></clipPath></defs><g clip-path="url(#_clipPath_2an7JYMt15wZ0ggUlDagB6iE14cxoaAi)"><g><path d=" M 7.5 49.75 L 40.625 49.5 Q 43.926 49.401 45.313 48.156 C 46.699 46.911 47.25 43.313 47.063 40.625 C 46.875 37.938 45.641 26.938 44.859 23.695 C 44.078 20.453 42.25 19.375 39.875 19 Q 38.813 13.656 38.25 11.75 C 37.688 9.844 33.375 0.25 24 0.5 C 14.625 0.75 8.25 9 8 18.375 Q 3.727 18.563 3.023 22.5 C 2.32 26.438 0.914 42.82 1.125 44.156 C 1.336 45.492 2.375 50.5 7.5 49.75 Z " fill="rgb(216,86,185)"/><path d=" M 13.625 18.625 L 33.875 18.75 Q 34.438 5.438 23.563 5.563 Q 12.688 5.688 13.625 18.625 Z " fill="rgb(255,255,255)"/><path d=" M 17.813 28.563 L 30 28.688 Q 29.063 25.563 23.5 25.625 Q 17.938 25.688 17.813 28.563 Z " fill="rgb(255,255,255)"/></g></g></svg>